<svg xmlns="http://www.w3.org/2000/svg" xmlns:xlink="http://www.w3.org/1999/xlink" width="40" height="23" viewBox="0 0 40 23">
  <defs>
    <clipPath id="clip-path">
      <rect id="Rectangle_4" data-name="Rectangle 4" width="40" height="23" transform="translate(0.718)" fill="#beff01"/>
    </clipPath>
  </defs>
  <g id="analytics-svgrepo-com" transform="translate(-0.718)" clip-path="url(#clip-path)">
    <path id="Path_16" data-name="Path 16" d="M38.654.347A2.106,2.106,0,0,0,36.963.8a3.507,3.507,0,0,0-.789,2.625L34.889,4.885c-.986,1.121-2.006,2.28-3,3.424s-1.988,2.316-2.954,3.449l-1.245,1.46c-.112,0-.229-.011-.352-.019a3.008,3.008,0,0,0-1.087.055,1.122,1.122,0,0,1-1.172-.325A40.855,40.855,0,0,0,18.572,8.56a1.171,1.171,0,0,1-.422-.329,1.183,1.183,0,0,1-.233-.484,2.513,2.513,0,0,0-1.135-1.522,2.478,2.478,0,0,0-1.868-.284,2.635,2.635,0,0,0-1.583,1.1,2.673,2.673,0,0,0-.422,1.89c.026.175.057.349.087.516l.024.137L4.625,17.718,4.5,17.705c-.14-.015-.285-.03-.43-.034A2.481,2.481,0,0,0,1.38,19.6a3.222,3.222,0,0,0,.336,2.518,2.7,2.7,0,0,0,.911,1.057,2.667,2.667,0,0,0,1.313.456c.047,0,.095,0,.142,0a2.72,2.72,0,0,0,2.261-1.276,2.98,2.98,0,0,0,.342-3.136L14.83,11.4l2.269-.706,6.731,4.655a4.232,4.232,0,0,0,.8,2.425,2.208,2.208,0,0,0,2.653.781,3.1,3.1,0,0,0,2.054-3.133L37.5,5.192a3.415,3.415,0,0,0,2.674-.318,2.182,2.182,0,0,0,.862-1.562,2.616,2.616,0,0,0-.515-2A2.632,2.632,0,0,0,38.654.347Z" transform="translate(-0.359 -0.254)" fill="#beff01"/>
  </g>
</svg>
