<svg xmlns="http://www.w3.org/2000/svg" width="32.775" height="28.5" viewBox="0 0 32.775 28.5">
  <path id="future-svgrepo-com" d="M1,16.25a14.25,14.25,0,0,1,28.488-.579l1.854-1.854a1.425,1.425,0,0,1,2.015,2.015l-4.275,4.275a1.425,1.425,0,0,1-2.015,0l-4.275-4.275a1.425,1.425,0,0,1,2.015-2.015l1.827,1.827a11.4,11.4,0,1,0-2.517,7.771,1.425,1.425,0,0,1,2.216,1.793A14.25,14.25,0,0,1,1,16.25ZM16.675,7.7a1.425,1.425,0,0,0-2.85,0v8.55a1.425,1.425,0,0,0,.417,1.008l4.275,4.275a1.425,1.425,0,0,0,2.015-2.015L16.675,15.66Z" transform="translate(-1 -2)" fill="#beff01" fill-rule="evenodd"/>
</svg>
