<svg xmlns="http://www.w3.org/2000/svg" width="48" height="32" viewBox="0 0 48 32">
  <g id="gym-svgrepo-com" transform="translate(-7 -11.5)">
    <path id="Path_9" data-name="Path 9" d="M33.5,16.5h3A1.5,1.5,0,0,1,38,18V33a1.5,1.5,0,0,1-1.5,1.5h-3A1.5,1.5,0,0,1,32,33V18A1.5,1.5,0,0,1,33.5,16.5Z" transform="translate(12.5 2)" fill="none" stroke="#beff01" stroke-width="2"/>
    <path id="Path_10" data-name="Path 10" d="M29.5,12.5h3A1.5,1.5,0,0,1,34,14V41a1.5,1.5,0,0,1-1.5,1.5h-3A1.5,1.5,0,0,1,28,41V14A1.5,1.5,0,0,1,29.5,12.5Z" transform="translate(10.5)" fill="none" stroke="#beff01" stroke-width="2"/>
    <path id="Path_11" data-name="Path 11" d="M15.5,12.5h3A1.5,1.5,0,0,1,20,14V41a1.5,1.5,0,0,1-1.5,1.5h-3A1.5,1.5,0,0,1,14,41V14A1.5,1.5,0,0,1,15.5,12.5Z" transform="translate(3.5)" fill="none" stroke="#beff01" stroke-width="2"/>
    <path id="Path_12" data-name="Path 12" d="M11.5,16.5h3A1.5,1.5,0,0,1,16,18V33a1.5,1.5,0,0,1-1.5,1.5h-3A1.5,1.5,0,0,1,10,33V18A1.5,1.5,0,0,1,11.5,16.5Z" transform="translate(1.5 2)" fill="none" stroke="#beff01" stroke-width="2"/>
    <path id="Path_13" data-name="Path 13" d="M36,22.5h4.5" transform="translate(14.5 5)" fill="none" stroke="#beff01" stroke-width="2"/>
    <path id="Path_14" data-name="Path 14" d="M18,22.5H33" transform="translate(5.5 5)" fill="none" stroke="#beff01" stroke-width="2"/>
    <path id="Path_15" data-name="Path 15" d="M7,22.5h4.5" transform="translate(0 5)" fill="none" stroke="#beff01" stroke-width="2"/>
  </g>
</svg>
