<svg xmlns="http://www.w3.org/2000/svg" width="32.707" height="29.667" viewBox="0 0 32.707 29.667">
  <g id="health-svgrepo-com" transform="translate(-1.25 -2.248)">
    <path id="Path_17" data-name="Path 17" d="M12.981,28.308l-.719.886Zm4.622-21-.833.779a1.141,1.141,0,0,0,1.667,0Zm4.622,21,.719.886ZM17.6,30.774v0Zm-3.9-3.352a44.177,44.177,0,0,1-6.795-6.705C4.87,18.12,3.532,15.454,3.532,13H1.25c0,3.222,1.72,6.392,3.86,9.122a46.423,46.423,0,0,0,7.153,7.069ZM3.532,13c0-4.419,1.928-7.15,4.314-8.084s5.711-.267,8.924,3.169l1.667-1.558C14.8,2.643,10.528,1.417,7.014,2.793S1.25,7.943,1.25,13ZM22.944,29.194A46.421,46.421,0,0,0,30.1,22.124c2.14-2.73,3.86-5.9,3.86-9.122H31.675c0,2.451-1.338,5.117-3.374,7.714a44.172,44.172,0,0,1-6.795,6.705ZM33.957,13c0-5.059-2.255-8.835-5.764-10.209S20.4,2.643,16.77,6.528l1.667,1.558c3.213-3.436,6.543-4.1,8.924-3.169S31.675,8.584,31.675,13ZM12.262,29.194c1.934,1.57,3.275,2.722,5.341,2.722V29.633c-1.1,0-1.785-.492-3.9-2.211Zm9.244-1.772c-2.118,1.719-2.8,2.211-3.9,2.211v2.282c2.065,0,3.407-1.152,5.341-2.722Z" fill="#beff01"/>
    <path id="Path_18" data-name="Path 18" d="M20.585,10.043H17.542m0,0H14.5m3.042,0V7m0,3.043v3.042" transform="translate(6.906 2.477)" fill="none" stroke="#beff01" stroke-linecap="round" stroke-width="1.5"/>
  </g>
</svg>
