<svg xmlns="http://www.w3.org/2000/svg" width="28.711" height="21.422" viewBox="0 0 28.711 21.422">
  <g id="Icons_Socials_ic-social-youtube" data-name="Icons/Socials/ic-social-youtube" transform="translate(-1.645 -5.289)">
    <g id="ic_social_youtube" data-name="ic social youtube" transform="translate(2.645 6.289)">
      <path id="Vector" d="M24.169,19.8l.147.989c.025,0,.051-.008.075-.014ZM26.6,17.858l.9.428c.013-.027.024-.055.035-.083Zm1.093-7.147-1-.049q0,.049,0,.1ZM26.6,3.565l.938-.346A.988.988,0,0,0,27.48,3.1ZM24.169,1.618l.263-.965a1,1,0,0,0-.117-.025Zm-9.813-.6-.025,1h.05Zm-9.813.6L4.4.629,4.32.643ZM2.115,3.565l-.9-.428q-.019.04-.035.083ZM1.022,10.711l1,.049q0-.049,0-.1Zm1.093,7.147-.938.346a1,1,0,0,0,.054.121ZM4.542,19.8l-.263.965a1.01,1.01,0,0,0,.117.024Zm9.788,1.6a58.164,58.164,0,0,0,9.985-.611l-.293-1.978a56.161,56.161,0,0,1-9.642.59Zm10.06-.625a4.559,4.559,0,0,0,1.841-.889L24.98,18.33a2.56,2.56,0,0,1-1.034.5Zm1.841-.889a4.559,4.559,0,0,0,1.267-1.6l-1.807-.856a2.561,2.561,0,0,1-.712.9Zm1.3-1.687a19.094,19.094,0,0,0,1.154-7.542l-2,.1a17.1,17.1,0,0,1-1.033,6.752Zm1.154-7.443a19.094,19.094,0,0,0-1.154-7.542l-1.877.691a17.094,17.094,0,0,1,1.033,6.752ZM27.48,3.1a4.905,4.905,0,0,0-1.27-1.539l-1.251,1.56a2.907,2.907,0,0,1,.752.912ZM26.21,1.559A4.907,4.907,0,0,0,24.432.653l-.527,1.929a2.907,2.907,0,0,1,1.053.537ZM24.315.629A58.16,58.16,0,0,0,14.33.018l.05,2a56.158,56.158,0,0,1,9.642.589ZM14.38.018A58.158,58.158,0,0,0,4.4.629l.293,1.978a56.159,56.159,0,0,1,9.642-.589ZM4.32.643a4.56,4.56,0,0,0-1.841.889l1.251,1.56a2.56,2.56,0,0,1,1.034-.5Zm-1.841.889a4.56,4.56,0,0,0-1.267,1.6l1.807.856a2.56,2.56,0,0,1,.712-.9Zm-1.3,1.687A19.093,19.093,0,0,0,.023,10.761l2-.1A17.093,17.093,0,0,1,3.054,3.91ZM.023,10.662A19.094,19.094,0,0,0,1.177,18.2l1.877-.691a17.094,17.094,0,0,1-1.033-6.752Zm1.208,7.662A4.906,4.906,0,0,0,2.5,19.863L3.752,18.3A2.907,2.907,0,0,1,3,17.392ZM2.5,19.863a4.909,4.909,0,0,0,1.778.906l.527-1.929A2.908,2.908,0,0,1,3.752,18.3Zm1.895.931a58.165,58.165,0,0,0,9.985.611l-.05-2a56.162,56.162,0,0,1-9.642-.59Z" transform="translate(-1 -1)" fill="#beff01"/>
      <path id="Vector-2" data-name="Vector" d="M1,1.822H2q0-.014,0-.027Zm1.213-.707L1.7,1.971h0ZM7.707,4.422l.531-.847-.015-.009Zm0,1.333.522.853L8.238,6.6ZM2.214,9.115l.517.856,0,0ZM2,8.409V1.822H0V8.409ZM2,1.795a.2.2,0,0,1-.025.1L.227.924A1.8,1.8,0,0,0,0,1.849Zm-.025.1a.2.2,0,0,1-.074.076L.894.245a1.8,1.8,0,0,0-.667.68ZM1.9,1.973A.2.2,0,0,1,1.8,2l.016-2a1.8,1.8,0,0,0-.92.245ZM1.8,2a.2.2,0,0,1-.1-.029L2.731.259A1.8,1.8,0,0,0,1.814,0Zm-.1-.028L7.191,5.279,8.223,3.565,2.729.258Zm5.478,3.3A.213.213,0,0,1,7.1,5.192l1.75-.969a1.787,1.787,0,0,0-.615-.649ZM7.1,5.192a.213.213,0,0,1-.027-.1h2a1.787,1.787,0,0,0-.224-.865Zm-.027-.1a.213.213,0,0,1,.027-.1l1.75.969a1.787,1.787,0,0,0,.224-.865Zm.027-.1a.213.213,0,0,1,.073-.077L8.238,6.6a1.787,1.787,0,0,0,.615-.649ZM7.185,4.9,1.692,8.262,2.735,9.968l5.493-3.36ZM1.7,8.259a.2.2,0,0,1,.1-.029l.016,2a1.8,1.8,0,0,0,.916-.259Zm.1-.029a.2.2,0,0,1,.1.027L.894,9.986a1.8,1.8,0,0,0,.92.245Zm.1.027a.2.2,0,0,1,.074.076L.227,9.306a1.8,1.8,0,0,0,.667.68Zm.074.076a.2.2,0,0,1,.025.1L0,8.381a1.8,1.8,0,0,0,.227.925Z" transform="translate(9.062 4.596)" fill="#beff01"/>
    </g>
  </g>
</svg>
