<svg xmlns="http://www.w3.org/2000/svg" width="43.04" height="28.167" viewBox="0 0 43.04 28.167">
  <g id="spicy-food-svgrepo-com" transform="translate(0 -80)">
    <g id="Group_11" data-name="Group 11" transform="translate(0 80)">
      <g id="Group_10" data-name="Group 10">
        <path id="Path_1" data-name="Path 1" d="M42.343,190.866H35.195L28.43,184.1q-.081-.081-.163-.159a8.606,8.606,0,0,0,.6-1.932,2.514,2.514,0,0,0-.527-2.119A2.645,2.645,0,0,0,27,179.064a3.768,3.768,0,0,0-1.388-2.939.7.7,0,1,0-.826,1.123,2.369,2.369,0,0,1,.819,1.794,2.825,2.825,0,0,0-2.131,2.1c-.016.069-.038.171-.061.28A9.77,9.77,0,0,0,14.61,184.1l-.217.217a2.828,2.828,0,0,0-2.55-.679,2.369,2.369,0,0,1-.04-1.965.7.7,0,0,0-1.227-.663,3.768,3.768,0,0,0,.017,3.25,2.645,2.645,0,0,0-.849,1.323,2.514,2.514,0,0,0,.44,2.139c.1.142.218.294.352.452l-2.692,2.692H.7a.7.7,0,0,0,0,1.394H6.3l1.353,1.8a2.942,2.942,0,0,0,2.343,1.171H33.047a2.942,2.942,0,0,0,2.343-1.171l1.353-1.8h5.6a.7.7,0,0,0,0-1.394Zm-17.57-9.117c.023-.109.044-.212.06-.281a1.469,1.469,0,0,1,1.428-1.106h0a1.35,1.35,0,0,1,1.014.431,1.168,1.168,0,0,1,.215.989,6.653,6.653,0,0,1-.354,1.233,9.693,9.693,0,0,0-2.374-1.221ZM15.6,185.087a8.387,8.387,0,0,1,11.848,0l5.779,5.779h-9.1q.318-.194.631-.414a.7.7,0,0,0-.52-1.257c-.049.008-4.711.745-8.913-3.831Zm-4.5.85a1.35,1.35,0,0,1,.729-.826h0a1.48,1.48,0,0,1,.64-.145,1.443,1.443,0,0,1,1.125.526,13.408,13.408,0,0,0,7.234,4.823c.286.07.561.126.822.17a7.768,7.768,0,0,1-2.347.381h-.112a8.592,8.592,0,0,1-1.429-.129,10.882,10.882,0,0,1-6.43-3.816A1.167,1.167,0,0,1,11.094,185.937Zm.425,3.227a13.045,13.045,0,0,0,2.454,1.7H9.817Zm22.755,4.063a1.541,1.541,0,0,1-1.227.614H9.993a1.541,1.541,0,0,1-1.227-.614l-.725-.967H35Z" transform="translate(0 -167.068)" fill="#beff01"/>
        <path id="Path_2" data-name="Path 2" d="M209.069,266.138A1.069,1.069,0,1,0,208,265.069,1.07,1.07,0,0,0,209.069,266.138Z" transform="translate(-188.664 -246.895)" fill="#beff01"/>
        <path id="Path_3" data-name="Path 3" d="M289.069,306.138A1.069,1.069,0,1,0,288,305.069,1.07,1.07,0,0,0,289.069,306.138Z" transform="translate(-261.228 -283.177)" fill="#beff01"/>
        <path id="Path_4" data-name="Path 4" d="M240.621,289.4a.7.7,0,1,0-.7-.7A.7.7,0,0,0,240.621,289.4Z" transform="translate(-217.617 -268.664)" fill="#beff01"/>
        <path id="Path_5" data-name="Path 5" d="M264.621,273.4a.7.7,0,1,0-.7-.7A.7.7,0,0,0,264.621,273.4Z" transform="translate(-239.386 -254.152)" fill="#beff01"/>
        <path id="Path_6" data-name="Path 6" d="M200,88.137a3.322,3.322,0,0,0,.9,2.293,1.978,1.978,0,0,1,.591,1.422.7.7,0,0,0,1.394,0,3.323,3.323,0,0,0-.9-2.293,2.009,2.009,0,0,1,0-2.846,3.387,3.387,0,0,0,0-4.591,1.984,1.984,0,0,1-.591-1.425.7.7,0,1,0-1.394,0,3.329,3.329,0,0,0,.9,2.3,2.013,2.013,0,0,1,0,2.849A3.326,3.326,0,0,0,200,88.137Z" transform="translate(-181.408 -80)" fill="#beff01"/>
        <path id="Path_7" data-name="Path 7" d="M233.68,103.287a.7.7,0,0,0,.547-.264,6.277,6.277,0,0,0,1.546-4.151,6.2,6.2,0,0,0-.514-2.521.7.7,0,0,0-1.276.563,4.986,4.986,0,0,1-.841,5.233.7.7,0,0,0,.538,1.141Z" transform="translate(-211.325 -94.454)" fill="#beff01"/>
        <path id="Path_8" data-name="Path 8" d="M169.146,127.336a.7.7,0,0,0,.638-.977,4.815,4.815,0,0,1-.39-1.943,4.867,4.867,0,0,1,1.243-3.282q.019-.024.036-.049a.7.7,0,0,0,0-.778.7.7,0,0,0-1.167.01,6.369,6.369,0,0,0-1,6.6A.7.7,0,0,0,169.146,127.336Z" transform="translate(-152.383 -116.278)" fill="#beff01"/>
      </g>
    </g>
  </g>
</svg>
