<svg xmlns="http://www.w3.org/2000/svg" width="16.763" height="16.841" viewBox="0 0 16.763 16.841">
  <path id="whatsapp-svgrepo-com" d="M15.4,3.454A8.349,8.349,0,0,0,2.281,13.564l-.021-.039L1.075,17.85,5.5,16.689A8.232,8.232,0,0,0,9.488,17.7h0a8.349,8.349,0,0,0,5.9-14.25h0Zm-5.9,12.84h0a6.9,6.9,0,0,1-3.562-.984l.031.017-.253-.15-2.625.689.7-2.56-.165-.262A6.868,6.868,0,0,1,2.554,9.357a6.937,6.937,0,1,1,6.937,6.937h0ZM13.3,11.1c-.208-.1-1.234-.608-1.425-.678s-.331-.1-.47.105-.538.678-.66.817-.244.157-.452.053a5.745,5.745,0,0,1-1.683-1.04l.006.005A6.31,6.31,0,0,1,7.469,8.945l-.016-.029c-.121-.208-.013-.321.091-.425s.209-.244.313-.365a1.446,1.446,0,0,0,.206-.339l0-.01A.375.375,0,0,0,8.1,7.611a.381.381,0,0,0-.057-.2v0c-.053-.1-.469-1.131-.643-1.549s-.342-.351-.469-.358-.261-.007-.4-.007a.763.763,0,0,0-.555.26h0a2.332,2.332,0,0,0-.73,1.7c0,.015,0,.03,0,.044v0a4.062,4.062,0,0,0,.858,2.166L6.1,9.657a9.374,9.374,0,0,0,3.51,3.125l.053.024a10.388,10.388,0,0,0,1.105.416l.084.023a2.782,2.782,0,0,0,.831.124,2.866,2.866,0,0,0,.5-.044l-.017,0a2.155,2.155,0,0,0,1.4-.982l.005-.01a1.706,1.706,0,0,0,.147-.7,1.753,1.753,0,0,0-.026-.3l0,.011c-.052-.087-.191-.139-.4-.244Z" transform="translate(-1.075 -1.009)" fill="#beff01"/>
</svg>
